<svg width="1440" height="527" viewBox="0 0 1440 527" fill="none" xmlns="http://www.w3.org/2000/svg">
<path d="M-8 510L257.529 337.085C396.673 246.473 577.009 249.89 712.62 345.707V345.707C863.321 452.185 1066.92 443.442 1207.94 324.435L1449 121" stroke="#AB87FF"/>
<path d="M-8 480L257.529 307.085C396.673 216.473 577.009 219.89 712.62 315.707V315.707C863.321 422.185 1066.92 413.442 1207.94 294.435L1449 91" stroke="#555555"/>
<path d="M-8 450L257.529 277.085C396.673 186.473 577.009 189.89 712.62 285.707V285.707C863.321 392.185 1066.92 383.442 1207.94 264.435L1449 61" stroke="#555555"/>
<path d="M-8 420L257.529 247.085C396.673 156.473 577.009 159.89 712.62 255.707V255.707C863.321 362.185 1066.92 353.442 1207.94 234.435L1449 31" stroke="#555555"/>
<path d="M-8 390L257.529 217.085C396.673 126.473 577.009 129.89 712.62 225.707V225.707C863.321 332.185 1066.92 323.442 1207.94 204.435L1449 1" stroke="#555555"/>
</svg>
